<svg width="39" height="39" viewBox="0 0 39 39" fill="none" xmlns="http://www.w3.org/2000/svg">
<path d="M27.7063 32.955C26.1138 34.4988 24.375 34.255 22.7013 33.5237C20.93 32.7762 19.305 32.7437 17.4363 33.5237C15.0963 34.5312 13.8613 34.2388 12.4638 32.955C4.53377 24.7812 5.70377 12.3337 14.7063 11.8787C16.9 11.9925 18.4275 13.0812 19.7113 13.1787C21.6288 12.7887 23.465 11.6675 25.5125 11.8137C27.9663 12.0087 29.8188 12.9837 31.0375 14.7387C25.9675 17.7775 27.17 24.4563 31.8175 26.325C30.8913 28.7625 29.6888 31.1838 27.69 32.9713L27.7063 32.955ZM19.5488 11.7812C19.305 8.1575 22.2463 5.1675 25.6263 4.875C26.0975 9.0675 21.8238 12.1875 19.5488 11.7812Z" fill="black"/>
</svg>
