<svg width="35" height="35" viewBox="0 0 35 35" fill="none" xmlns="http://www.w3.org/2000/svg">
<path d="M31.1711 14.7694H30.0481V14.7115H17.5V20.2885H25.3795C24.2299 23.5349 21.141 25.8654 17.5 25.8654C12.8802 25.8654 9.1346 22.1198 9.1346 17.5C9.1346 12.8802 12.8802 9.1346 17.5 9.1346C19.6325 9.1346 21.5725 9.93908 23.0497 11.2531L26.9933 7.30956C24.5032 4.98886 21.1724 3.55768 17.5 3.55768C9.80035 3.55768 3.55768 9.80035 3.55768 17.5C3.55768 25.1996 9.80035 31.4423 17.5 31.4423C25.1996 31.4423 31.4423 25.1996 31.4423 17.5C31.4423 16.5652 31.3461 15.6526 31.1711 14.7694Z" fill="#FFC107"/>
<path d="M5.16525 11.0105L9.746 14.3699C10.9855 11.3012 13.9873 9.1346 17.5 9.1346C19.6325 9.1346 21.5726 9.93908 23.0498 11.2531L26.9933 7.30956C24.5032 4.98886 21.1724 3.55768 17.5 3.55768C12.1448 3.55768 7.50059 6.58107 5.16525 11.0105Z" fill="#FF3D00"/>
<path d="M17.5 31.4423C21.1013 31.4423 24.3736 30.0641 26.8476 27.8229L22.5325 24.1714C21.0859 25.2722 19.3178 25.8673 17.5 25.8654C13.8736 25.8654 10.7944 23.5531 9.63445 20.3261L5.08786 23.8291C7.39531 28.3443 12.0813 31.4423 17.5 31.4423Z" fill="#4CAF50"/>
<path d="M31.1711 14.7694H30.0481V14.7115H17.5V20.2885H25.3795C24.8296 21.8336 23.8391 23.1837 22.5304 24.1721L22.5325 24.1707L26.8476 27.8222C26.5423 28.0997 31.4423 24.4712 31.4423 17.5C31.4423 16.5652 31.3461 15.6527 31.1711 14.7694Z" fill="#1976D2"/>
</svg>
